<svg xmlns="http://www.w3.org/2000/svg" width="411" height="698" overflow="hidden"><style><![CDATA[.B{fill-rule:evenodd}.C{stroke-linejoin:round}.D{stroke-miterlimit:10}.E{fill:#fdfdfd}.F{stroke-width:4}.G{fill:#d39455}.H{fill:#fbcc9b}.I{fill:#c6c5c5}.J{stroke-width:6}.K{fill:#96622e}.L{fill:#98c9ca}.M{fill:#322215}.N{fill:#555454}]]></style><defs><clipPath id="A"><path d="M384 12h411v698H384z" clip-rule="evenodd" class="B"/></clipPath></defs><g clip-path="url(#A)" transform="translate(-384 -12)"><g stroke="#fbcc9b" class="B C D H"><path d="M756.708 206.362v21.174c0 2.144 1.073 3.752 1.878 5.63 1.073 3.484 2.414 6.7 2.414 10.452-.268 1.61-.536 2.95-2.146 4.02-1.073-3.753-.805-7.773-2.146-11.257v6.432c0 7.505-.268 15 0 22.514.268 18.494-5.9 35.11-17.167 49.584-11.535 15.278-26.288 26.802-42.92 36.183-15.022 8.04-30.58 13.67-47.21 17.154-16.9 3.752-33.262 2.412-49.893-2.68-22.264-7.236-42.65-18.225-60.355-33.77-14.485-12.865-26.02-27.875-30.58-47.172-1.073-4.29-1.6-8.577-1.6-13.133l-.536-44.76c-.268 4.556-.805 9.38-1.34 13.937 0 .804 0 1.876-.537 2.144-.805.536-1.34-.536-1.878-1.072-2.682-2.144-1.877-5.092-1.34-7.772.268-1.34.805-2.95 1.34-4.29 4.83-7.504 4.56-15.813 4.292-24.122v-2.144c1.073-3.752 1.073-7.773 1.073-11.525 0-13.133.27-26.266 3.22-39.13 1.6-7.773 4.024-15.277 8.316-22.246.536-1.072 1.073-1.876 2.682-1.34 18.51 6.432 36.75 4.288 54.722-1.34 14.485-4.557 28.433-10.99 41.845-17.958 16.363-8.04 32.2-16.617 49.357-22.514 6.438-2.412 13.144-4.02 20.118-5.092 1.878-.268 2.95 0 3.756 1.876 4.828 13.133 13.144 23.318 24.678 31.36 4.828 3.752 9.925 7.236 14.753 10.99 9.12 7.236 15.022 16.35 19.314 27.07 3.755 9.917 5.096 20.102 5.096 30.822.27 7.237-.268 14.742.805 21.978zm-144.046 110.96c0-.268 0-.536-.268-.268 0 .268.268.268.268.268 0 1.073 1.073 1.61 1.34 2.413 1.073 7.504 8.584 14.473 16.095 14.74 6.974.536 15.29-5.897 17.435-12.865.805-1.34 1.878-2.68 2.95-4.02 0-.268.268-.536.268-.804-.268 0-.536.268-.804.268-8.048 5.897-17.168 8.04-27.093 5.093-3.487-1.072-6.706-3.216-10.193-4.825zm62.77-128.114c-2.415-3.484-6.17-3.484-9.12 0-4.292 5.36-4.56 16.08-.536 21.7 2.95 4.288 7.242 4.02 10.46-.268 3.756-5.093 4.024-15.278.27-20.638-.27-.268-.27-1.072-1.073-.804zm-93.617 87.91c10.73 19.834 26.02 32.163 48.552 32.7 24.142.804 40.773-11.793 53.112-32.163-34.067 7.505-67.597 7.773-101.664-.536zm9.657-146.072c-7.243.804-14.217 2.948-19.582 8.845-1.34 1.34-2.146 3.216-.805 5.092 1.6 1.876 3.22.804 4.83 0 3.22-1.608 6.17-3.484 9.388-4.824 6.438-2.68 12.07-1.876 17.168 2.68 1.073 1.072 1.877 1.876 2.95 2.68 1.073.536 2.146 1.072 3.22.268.805-.804 1.34-1.608 1.073-2.948 0-1.608-1.073-2.948-2.146-4.288-4.023-4.557-9.12-7.237-16.094-7.505zm100.054 12.865c-.268-1.608-1.34-3.216-2.682-4.288-5.097-4.557-10.998-7.237-17.704-7.773-6.975-.536-12.876 2.144-17.436 7.773-1.34 1.608-2.682 3.484-.536 5.628 2.145 1.876 3.487 0 5.096-1.34 3.755-3.216 8.047-5.36 13.144-4.556 3.755.536 6.974 2.144 10.193 4.288 1.878 1.072 3.756 2.412 5.902 3.216 2.145 1.072 4.023-.268 4.023-2.948zm-93.616 55.48c0-3.485-.537-6.97-2.683-10.185-2.95-4.288-7.242-4.288-10.46-.268-4.024 5.36-4.292 15.813-.27 21.442 2.95 4.02 6.975 4.288 10.194.268 2.414-3.217 3.22-7.237 3.22-11.257zm51.234 40.47c-4.56 4.556-8.852 10.185-15.826 10.185s-11.535-4.824-15.827-10.185c.537 7.505 9.12 15.545 16.363 15.277 7.243 0 15.3-8.04 15.3-15.277z" class="F"/><g class="J"><path d="M497.64 189.572c-6.36-2.66-10.333-2.127-13.513 1.596-2.914 3.2-4.24 9.572-2.914 13.826 1.06-2.66 1.6-5.052 2.65-7.18 3.7-6.38 10.6-6.913 14.838-1.064 5.3 6.914 5.3 14.625 3.18 22.336-1.6 5.318-4.504 9.838-5.564 15.422-1.325 5.85.265 9.838 5.564 12.763 1.325.797 1.855 1.86 1.6 3.456l-1.855 19.4c0 1.86-1.324 1.33-2.65 1.063-3.445-.797-5.564-3.456-7.684-6.115-1.6-1.862-2.914-4.255-3.7-6.914l-11.923-39.086C473 209.25 473 199.4 477.77 190.37c3.7-6.647 9-10.37 16.693-10.104l3.18 9.306zm270.206-3.235c11.214-1.337 18.325 6.686 20.513 17.65 1.64 8.56.273 17.117-2.735 25.407l-12.58 33.965c-1.915 5.082-4.65 9.36-9.3 12.303-1.094.535-1.915 1.337-3 .802-.82-.535-.547-1.605-.547-2.407.274-6.15 0-12.302-1.094-18.186 0-1.337-.274-2.674 1.094-3.744 5.744-3.744 5.744-9.093 3.83-14.977-1.094-4-2.735-7.756-4.102-11.767-1.642-5.617-1.915-11.233.273-16.85 1.094-2.942 3-5.616 5.47-7.756 4.65-4.012 9.846-2.942 13.128 2.14 1.368 2.407 1.915 5.348 3 7.755.547-4.28 1.094-8.825-1.64-12.837-2.735-4.28-9.573-5.35-15.043-2.14-.82.267-1.64.802-2.46 1.07 1.094-3.744 3.555-6.953 5.196-10.43z"/></g></g><path d="M721 101c-.5-.333-.5-.667-1-1h.5c.5.333.5.667.5 1z" class="B K"/><path d="M764 197c-.5.333-1 .667-1 1 0-.667 0-1 1-1z" class="B H"/><path d="M551 66c-1 0-1 0-1 1 0-1 0-1 1-1z" class="B K"/><g stroke="#1f4e79" fill="#1f4e79" class="C D J B"><path d="M659.94 530v3.778l.805 52.35.537 19.698c0 2.16.805 3.508 2.416 4.318 2.685 1.62 5.638 2.16 8.6 2.428 12.35.54 24.698-.54 36.778-2.968h3.5l2.685 22.127c1.073 9.714 2.416 19.43 3.758 29.143 0 1.62-.805 1.62-1.6 1.9-3.758 1.35-7.785 2.16-11.543 2.428-6.98.8-13.692.54-20.672.27-1.6 0-2.147-1.35-2.684-2.428l-20.94-38.318-29.798-56.127c-.806-1.08-1.343-2.428-2.148-3.777 4.564-.8 8.86-1.08 12.886-2.43 3.758-1.35 7.517-2.968 10.47-5.937-4.564 1.08-9.128 2.43-13.692 3.24-11.006 2.158-22.013 1.35-32.75-.8-1.88-.27-3.76-.8-5.638-1.08-1.342-.54-1.88-1.62-1.88-3.238.268-7.826 0-15.92 0-23.746 20.403.27 40.805.27 60.94-.8zm-124.074 77c8.68 2.4 17.632 3.482 26.855 4.82 7.866 1.072 15.732 1.072 23.6 1.072 2.984 0 5.696-1.34 8.68-1.072l-15.2 27.322c-3.798 6.964-8.138 13.928-11.393 20.893-2.17 4.82-5.154 6.16-9.765 6.428-9.223.536-18.174 0-27.126-2.946-2.44-.804-3.526-2.143-2.984-4.822l4.34-30.267c1.085-7.233 2.712-14.197 2.983-21.43zm62.674-2c-.27-14.127 1.083-28.526.812-42.653-.27-1.36-1.353-4.347 2.165-3.804 5.682 3.804 12.447 4.62 19.482 5.977-2.976 5.162-5.682 10.324-8.388 15.214-4.6 8.422-8.93 17.116-14.07 25.266z"/></g><g class="E B"><path d="M560.703 354c2.407 1.07 4.546 2.4 6.685 3.75-4.546 9.107-8.824 18.482-9.626 28.93-.535 10.178-2.674 20.357-2.674 30.803-.268.804-.535 1.34-1.07 1.875-4.545 2.947-5.882 7.232-6.15 12.322-.267 3.482-.535 6.964.268 10.446 2.406 9.643 2.406 19.82 5.348 29.464 1.604 4.554 2.94 8.84 5.347 13.393-2.14-.268-4-1.34-6.15-1.07-2.94.268-5.08 2.143-5.348 4.82 0 2.947 2.14 5.357 5.08 5.625 2.14.268 4.278-.536 6.15-1.34 2.674-1.072 5.348-2.143 8.022.268.535.803 1.872 1.07 2.674 1.34 3.476.804 6.952 1.607 10.43 1.875 2.674.536 4.813-.536 6.15-2.68 1.07-1.875 1.07-3.75-.268-5.357-1.604-2.143-3.743-2.4-6.15-2.143-1.604.268-2.94.804-4.278 1.608s-2.674.803-4 .267c-1.07-.267-1.337-.535-.535-1.607 6.15-8.035 6.952-17.678 7.487-27.053.268-4.822 0-9.375 0-13.93.802-.268 1.07 0 1.337.536 4.28 8.84 8.824 17.4 13.37 26.25 2.14 4.553 3.2 9.375 3.2 14.732l-1.604 117.32c0 1.875-.803 2.947-2.674 3.215-3.2 1.07-6.418 1.34-9.627 1.34-18.183-.268-36.1-2.946-53.747-8.304-2.94-.803-4.278-2.678-4.546-5.892-.802-13.125.535-26.25 1.872-39.375 2.674-31.875 6.952-63.75 11.498-95.358 4.813-33.214 10.16-66.428 16.044-99.642.802-4.554 4.546-5.1 7.487-6.43zm32.623 175.982c0-4.553-1.07-8.303-4-10.982-.802-1.07-1.604-1.34-2.674-.536-7.755 4.554-16.044 7.5-24.333 10.18-9.894 3.482-19.52 7.232-29.95 7.768-1.07 0-1.337.803-1.872 1.607-1.337 4.286-.802 8.303 1.337 12.053 1.605 3.215 3.476 4.286 6.953 3.483 17.38-3.75 34.227-9.375 50.27-17.143 2.94-1.34 4.813-3.482 4.278-6.43zM499.5 404.67c-.802-4.853-2.137-9.435-3.74-13.748-.535-1.618-.267-2.426 1.068-3.235 17.097-8.896 33.927-18.06 51.3-26.148.267 0 .8-.54 1.87-.27l-3.473 18.6-8.014 50.14c-.267 1.078-.267 2.156-1.603 2.695-14.425 7-28.584 14.018-44.345 17.522C474.4 454 460.24 447.8 450.1 432.435c-6.946-10.513-10.42-22.105-13.1-34.505 10.686 3.235 19.768.54 28.05-5.66 8.28-5.93 13.624-14.018 14.692-25.34 8.816 11.86 14.693 24.26 18.7 37.74.534 1.887.534 3.504 1.87 5.66.267-2.156-.267-4.043-.8-5.66z"/></g><path d="M661 412.374c-1.082 16.682-1.893 33.365-1.082 50.048.812 21.257 0 42.245.27 63.233C639.9 527 619.36 527 599.082 526.73v-58.4c.27-10.494.54-20.988.27-31.75-.27-8.6-.81-17.5-1.352-26.1 1.082-6.458 4.326-11.84 8.112-17.22l10.545 16.414c.81 1.076 1.08 2.152.81 3.498-.54 2.42-.81 5.112-1.352 7.534l-11.086 61.35c-.54 1.884 0 3.498 1.082 5.113 6.49 8.6 12.708 17.5 18.927 26.1 1.622 2.153 3.515 4.574 5.137 6.996 8.382-11.57 16.223-23.14 24.064-34.442.812-1.076.812-2.152.54-3.23l-12.438-69.96c0-1.077 0-1.884.54-2.96L651.807 393c4.326 5.92 7.3 12.378 9.193 19.374z" stroke="#203864" fill="#203864" class="B C D F"/><g class="E B"><path d="M570.6 360c2.667.8 5.333 2.4 8 3.733.267 15.467 4.533 29.867 13.067 43.2 1.333 2.134 2.933 4 4 6.4l.8 24.267c.533 11.2.266 22.4-.534 34.4-1.333-3.2-2.4-5.6-3.733-8-3.733-7.467-8.267-14.667-11.733-22.4-2.934-6.4-5.334-13.333-5.067-20.8 0-5.333 1.6-9.867 5.067-14.133 1.066-1.6 2.666-3.2 1.866-5.334-1.066-2.133-3.466-1.6-5.333-1.6h-6.667c-5.6 0-8.533-2.666-9.066-8.533-.267-4.8.8-9.333 2.133-13.6 1.6-6.133 4.267-12 7.2-17.6zm-5.185 123c-3.923-6.966-5.753-14.2-7.06-21.703-.785-4.02-1.83-8.307-1.308-12.326.262-5.1-1.046-9.914-.784-14.737.26-2.68.26-5.626 3.66-6.43 3.14-.804 6.277.804 7.846 3.75.262.804.785 1.608.785 2.144 3.138 13.665 4.446 27.598.784 41.263-1.046 3.75-1.83 5.36-3.923 8.038z"/></g><path d="M572.2 424.226c.527 5.914 2.373 11.3 4.482 16.666.263.807 1.318 1.882.527 2.42-1.318.806-2.9.537-4.482.537-1.318 0-1.054-1.344-1.054-2.15-.264-2.688-.79-5.645-1.582-8.333-1.318-4.033-3.427-6.72-7.646-7.258-4.48-.538-7.38 1.88-7.91 6.45-.263 3.495.264 6.72.79 10.215.264 1.613-.263 2.15-1.582 1.882s-3.427 1.344-3.7-1.075c-.528-5.108-1.055-10.484.263-15.592.79-2.957 2.373-5.376 4.746-6.99 1.58-.806 1.845-1.882 1.845-3.495.264-6.99.79-13.71 2.11-21.505 1.318 2.957 3.164 4.57 5.01 5.914-.527 5.108-1.054 10.215-1.054 15.054 0 1.075-.528 2.42 1.054 2.42 3.428.27 5.8 2.42 8.173 4.84z" stroke="#98c9ca" class="B C D F L"/><path d="M599.27 526.217c20.154.305 40.577.305 60.73-1.217v5.783c-20.154 1.217-40.577 1.217-61 .913 0-1.826 0-3.653.27-5.48z" fill="#002060" class="B"/><path d="M551.81 448.933c.27-1.066-.81-2.933 1.618-2.933s1.888 1.6 1.888 2.933c.81 9.6 2.427 19.2 5.932 28.267 1.35 2.933 2.697 5.867 4.584 8.267s4.045 4.533 7.55 4.533c1.348.267 1.618 1.067 1.618 2.4-.27 1.6-1.348 1.067-2.157 1.067-4.315-.267-7.28-2.934-9.708-5.867-2.966-4-4.854-8.267-6.202-12.8-2.967-8.267-4.315-17.067-5.124-25.867z" class="B I"/><path d="M565.808 402.275c3.77.276 7.538.276 11.577 0 .538 0 1.077-.275 1.346.276.27.826-.27 1.1-.54 1.652-3.77 4.956-5.654 10.464-5.384 16.797-2.423 0-3.5-2.754-5.654-2.754-1.885-.275-2.154-1.376-2.154-3.03 0-4.405 1.077-8.536.808-12.942z" class="B E"/><g class="I B"><path d="M577 455.166c0 7.223-.55 14.445-2.75 21.4-.825 3.2-2.475 6.153-4.4 8.828-.55.535-1.1 1.605-1.925.535-.55-.803-1.925-1.338-.825-2.408 7.15-10.433 6.325-22.47 6.325-34.242v-2.675c-.275-1.605.825-1.337 1.925-1.605 1.375 0 1.65.535 1.65 1.605v8.56zM580.364 495c-3.546 0-4.364-.84-4.364-3.64.273-3.36 3-2.8 4.9-3.08 2.182-.28 3.818.56 3.818 3.08.273 2.52-1.636 3.64-4.363 3.64zm-22.637-5.64c.273 3.64-2.182 3.36-4.363 3.36-2.455.28-4.364-.84-4.364-3.36s1.636-3.36 3.818-3.36c3.546 0 4.9.84 4.9 3.36z"/></g><path d="M565.973 402.795c.27 4.24-.81 8.217-.81 12.458 0 1.6.27 2.65 2.162 2.916 2.163 0 3.244 2.65 5.676 2.65V424c-2.432-2.386-4.865-4.506-8.378-4.77-1.622 0-1.08-1.325-1.08-2.386 0-4.77.54-9.807 1.08-14.843.54 0 1.08.265 1.35.795z" fill="#676767" class="B"/><path d="M560.23 488c1.23.818 2.77 1.09 2.154 2.727 0 0-.923.273-1.54.273-1.846-.818-.308-2.182-.615-3z" class="B I"/><path d="M729.535 535.268c2.963.536 2.963 2.946 3.233 5.09C734.384 556.43 736 572.5 736 588.57c0 2.68-.27 5.625-.54 8.304-.27 1.875-1.077 3.214-2.963 3.75-19.664 6.16-39.867 9.375-60.34 8.57-.54 0-1.078-.267-1.886-.267-5.387-.804-5.657-1.072-5.657-6.43L663 484.375c0-2.143.54-4.286 1.347-6.43 2.963-8.303 7.273-16.07 11.314-23.57 4.58-8.304 8.62-16.607 10.774-25.714 1.078-.268 1.078.535 1.617 1.07 4.3 4.018 9.428 5.357 15.085 3.214 5.656-1.875 8.89-6.16 9.428-12.053s-2.155-10.447-7.543-13.66c-.54-.268-.808-.536-1.347-.803 0-6.16.27-12.322 0-18.215-.538-10.982-2.693-21.428-10.775-29.464 2.425-1.34 4.85-2.68 7.273-3.75 3.772 1.34 5.388 4.018 6.196 8.036 5.926 32.678 11.314 65.357 16.162 98.303.27 1.072.27 1.607-.538 2.41-10.506 11.518-18.318 24.643-27.476 37.232-.54.804-1.078 1.607-1.886 2.41-2.694 3.482-2.694 3.482.27 6.696-3.232 4.286-5.656 8.84-7.273 13.93-4.3-1.34-8.35-3.482-12.39-5.625-.808-.536-1.347-1.072-2.424-.268-6.465 6.16-5.388 15.804 2.424 19.554 14.546 6.696 29.63 11.785 45.255 15.535 8.35 2.143 10.505.536 12.39-8.035.54-2.41.54-4.822-.27-6.965-.27-.803-.54-1.34-1.347-1.34 0-.536 0-1.07.27-1.607z" class="B E"/><path d="M609 388.68c3-5.096 7.364-9.12 11.455-13.68h17.454c3.546 4.024 7.636 8.047 10.636 12.607-.272.805-.545 1.878-1.1 2.683-3.273 5.9-6.273 12.07-9.546 18.24-.545.804-.818 1.34-.545 2.414l11.727 65.72c.273 2.682 1.91 5.365 0 8.047l-17.182 24.142c-1.09 1.878-1.91 2.146-3.273.268-5.454-7.78-11.18-15.558-16.91-23.07-1.91-2.414-1.636-4.56-1.363-6.974.272-2.146.818-4.56 1.09-6.706l11.454-60.623c.273-1.342-.273-2.146-.818-3.22L609 388.68z" stroke="#ba1a18" fill="#ba1a18" class="B C D J"/><path d="M689.68 360c4.112 7.808 7.4 15.885 9.045 24.5 0 1.346.274 2.423.274 3.77 0 8.346-3.015 11.308-11.237 11.04h-7.674c-3.015.27-3.563 1.884-2.467 4.577.274.538.548 1.077 1.097 1.615 6.03 7 6.577 15.077 4.66 23.423-1.92 7.808-5.482 14.54-9.045 21.54-3.837 7-7.948 14-10.69 21.538-1.644-20.73-.822-41.192.275-61.654 1.37-1.884 2.466-3.77 3.563-5.384 7.948-12.654 12.06-26.116 12.333-40.924L689.68 360z" class="B E"/><g class="C D F B"><g stroke="#203864" fill="#203864"><path d="M615 374.1c-3.235 4.28-6.74 8.295-9.704 12.3-3.774 5.085-6.74 10.437-9.435 16.592-7.548-12.042-11.6-24.352-11.86-38 10.243 3.746 20.487 7.225 31 9.1zm29 .002c10.513-1.62 21.026-4.6 31-8.102-.27 13.234-4.583 25.387-11.6 37-2.157-4.05-4.044-8.102-6.2-11.613-3.774-6.212-8.626-11.613-13.2-17.285z"/></g><path d="M695.87 365c3.774 4.647 4.935 10.113 5.806 15.853 1.162 8.2.87 16.674.58 25.147-.87-.273-1.742-.273-2.613-.273-2.903-.274-4.645-2.734-2.613-4.647 6.968-6.833 4.936-14.487 3.484-21.867-.87-4.1-2.613-7.653-4.064-11.206-.29-1.094-1.162-1.914-.58-3.007z" stroke="#98c9ca" class="L"/></g><path d="M710.277 361c5.896 2.946 10.72 7.23 15.008 11.514 13.937 13.657 24.925 29.456 35.646 45.522 8.308 12.854 15.545 26.242 23.585 39.363 2.948 5.088 3.484 10.176 1.876 15.8-3.216 9.908-7.772 19.012-13.133 27.85-7.504 12.853-16.348 24.635-26.533 35.08-1.34 1.338-2.412 1.874-4.02 1.07-17.153-6.963-32.43-16.335-46.098-28.92-1.34-1.34-1.608-2.142-.268-4.017l19.03-27.58c5.896-8.3 12.06-16.334 19.833-22.76.536-.267.536-.803.536-1.34-3.484 1.607-6.165 4.285-9.38 7.23-1.34-3.48-1.34-6.694-1.876-9.907-4.288-28.652-8.844-57.037-14.204-85.69-.268-.803-.268-1.606-.268-2.677 0 0 .268-.268.268-.536zm26.8 91.312c1.072-.804 2.144-1.34 3.216-2.143 0 0-.268-.267-.268-.535-1.072.803-2.144 1.34-3.216 2.142-.268.268-.804.268-.536.803.536.268.536-.267.804-.267z" fill="#fff" class="B"/><path d="M695.738 512c9.432 8.533 19.943 15.467 31.262 21.6l-.81 2.4c-12.936-1.6-25.063-6.4-37.19-11.2 1.887-4.267 3.773-8.8 6.738-12.8z" class="B H"/><path d="M687.09 421.2c0-3.467-1.09-6.933 2.182-10.133 5.182-5.067 13.636-5.067 18.545 0 5.182 5.333 4.637 13.866-1.09 18.4s-13.91 3.466-18.545-2.134c-1.637-2.133-.818-4.266-1.09-6.133zm11.454-11.2c-5.727 0-10.363 4.267-10.363 9.867S692.818 430 698.818 430c5.455 0 10.09-4.8 10.09-10.133-.273-5.6-4.636-9.867-10.364-9.867z" class="B I"/><path d="M686.625 412c-1.34-3.6-3.214-6.154-5.625-9.23 5.09-.256 9.91 1.026 14.464-.77.536 2.564-.535 4.103-3.214 4.872-2.143.77-4.018 2.82-5.625 5.128z" class="B E"/><g class="G B"><path d="M696 512.143c-3.056 4.018-5 8.57-6.944 12.857-1.112 0-2.223-.536-3.056-1.07 1.667-5.1 4.167-9.643 7.5-13.93.833.804 1.667 1.34 2.5 2.143zm30 24.107l.857-2.25c.857.5 2 .75 3.143 1.25-.286.5-.286 1-.286 1.5-1.143 0-2.57.25-3.714-.5z"/></g><g class="L B"><path d="M695 364c.8.286 1 .57 1 1-.8 0-.8-.57-1-1zm0-1c.5.25.5.5 1 1-.5-.5-.5-.75-1-1z"/></g><path d="M710.5 362c-.5 0-.5-.5-.5-1h1c0 .5-.5 1-.5 1z" fill="#fff" class="B"/><g stroke="#fbcc9b" class="C D F H B"><path d="M415 271.638c.274-3.78 2.2-6.748 5.747-7.558 3.285-1.08 6.57.27 8.758 3.5 1.916 2.43 2.737 5.4 3.832 8.368 2.737 7.558 4.926 15.656 7.116 23.485.547 1.62.273 2.43-1.642 3.24-2.737.8-5.474 2.16-7.937 3.78-.82.54-1.642.54-2.2-.54-4.38-8.908-9.305-17.546-12.316-27.264-.82-2.16-1.368-4.6-1.368-7.018zm74.07 23.716c-5.66-1.88-12.668 1.88-15.363 8.32-.8 2.415-1.887 4.83-3.773 6.7-2.426 1.878-5.12 1.342-5.93-1.6-1.887-9.662-5.12-19.055-7.277-28.717-.8-4.295-1.348-8.857-2.965-12.883-2.156-4.563-5.12-6.173-9.433-5.1-3.504 1.073-5.4 4.294-4.85 8.588l4.312 27.376c.54 2.147 1.348 2.415 3.234 1.88 2.965-.537 5.93-.27 9.433 1.6-7.007-.537-12.667 1.073-18.327 3.22-6.2 2.147-11.86 5.636-17.25 9.393a.58.58 0 0 1-.539.537 2.05 2.05 0 0 1-.539 1.342c-.27 0-.27 0-.54.268.27-.268.27-.268.27-.537 0-.536.27-.805.54-1.073l.8-.805c0-.805.54-1.342 1.347-1.88 1.887-1.074 1.348-2.147 0-3.5-3.773-5.1-7.816-9.93-11.32-15.03-2.425-3.757-7.277-4.294-10.78-1.88s-4.312 6.7-1.886 11.004c3.504 5.905 7.546 11.004 11.86 16.104 2.156 2.684 5.4 5.1 5.93 9.125v1.342c-3.504-2.147-7.007-4.026-10.5-5.636-2.695-1.342-5.4-2.952-8.355-3.5-3.504-1.074-6.2-.27-7.816 2.147-1.348 2.147-.54 5.1 1.886 7.515 1.617 1.342 3.774 2.684 5.66 3.757 7.277 4.026 15.093 6.7 22.9 9.662 3.503 8.32 8.624 15.03 17.518 19.056 2.965 1.342 5.93 1.6 9.164 2.415-1.617.537-2.426.806-3.504.806-1.347 0-1.886.536-1.617 2.147 1.617 9.393 3.234 19.055 5.93 28.45 10.5-.537 23.18-10.467 26.682-20.666l-4.042-17.982c-1.887.537-2.696 2.415-4.582 2.147-.27.268-.54.268-.54.537 0-.27.27-.27.54-.537 1.617-2.147 3.773-4.026 5.12-6.44 4.042-7.515 5.93-15.3 5.4-23.62 0-4.025 1.078-7.246 3.773-10.198 2.156-2.416 4.313-4.563 6.2-6.98 2.426-2.683 4.852-5.1 6.738-8.05 2.426-3.758.8-7.515-3.503-8.857zm-37.464 37.574c-4.312-4.83-.27-14.224 7.547-16.37-4.582 5.1-8.356 9.662-7.547 16.37zm12.13 27.376c.27 0 .54 0 .808-.268l-.54.537s0-.27-.27-.27z"/></g><path d="M418.6 295c.2.333.4.667 0 1-.2-.167-.4-.5-.6-.667.2-.166.4-.166.6-.333z" fill="#fff" class="B"/><g class="M B"><path d="M598 199.595c0 4.054-.83 8.108-3.323 11.35-3.323 4.054-7.477 3.784-10.523-.27-4.154-5.676-3.877-16.217.277-21.622 3.323-4.054 7.754-4.054 10.8.27 2.215 3.244 2.77 6.757 2.77 10.27zm-2.492-4.865c0-3.244-1.662-5.946-3.6-6.216-2.216 0-3.877 2.432-4.154 5.945s1.384 6.757 3.6 6.757c2.215.27 4.154-2.702 4.154-6.486zm79.796-5.303c.783-.263.783.528 1.044.8 3.652 5.273 3.4 15.3-.26 20.3-3.13 4.218-7.304 4.482-10.174.264-3.913-5.537-3.652-16.082.522-21.355 2.87-3.427 6.522-3.427 8.87 0-3.913-1.054-5.217 0-6 4.218-.26 1.32-.26 2.637.26 3.7.26 1.846 1.044 3.7 3.13 3.7s2.608-1.845 3.4-3.7c1.043-2.9-.522-5.272-.783-7.9z"/></g><path d="M647 321.842c-2.112 6.842-10.296 13.158-17.16 12.632-7.392-.263-14.784-7.106-15.84-14.474.792.79 1.584 1.316 2.376 2.105 4.752 4.21 9.768 6.58 16.104 6.316 5.808-.263 10.296-2.895 14.52-6.58z" class="B G"/><g fill="#7e5326" class="B"><path d="M649 240c0 7.448-8.136 15.724-15.458 15.724-7.322.276-16-8-16.542-15.724 4.34 5.517 8.95 10.483 16 10.483S644.4 244.7 649 240zm-1.887 81.744c-4.198 3.907-8.66 6.698-14.432 6.977-6.298.28-11.284-2.233-16.007-6.698-.787-.837-1.575-1.395-2.362-2.232-.262-.838-1.312-1.396-1.312-2.512 3.4 1.674 6.56 3.907 9.972 5.023 9.7 3.07 18.63.838 26.503-5.302.263 0 .525.28.525.558-1.05 1.395-2.1 2.8-2.887 4.186z"/><path d="M650 317.333c.333 0 .667-.333 1-.333 0 .333-.333.667-.333 1a.72.72 0 0 0-.667-.667zM613 318s-1 0-1-.5c1-.5 1 0 1 .5z"/></g><path d="M593.463 530.423c.537 2.97-1.343 5.132-4.298 6.482-16.115 7.832-33.037 13.504-50.496 17.285-3.49.8-5.37-.27-6.983-3.51-2.15-3.78-2.686-7.832-1.343-12.153.537-.81.806-1.62 1.88-1.62 10.475-.54 20.145-4.32 30.083-7.832 8.326-2.7 16.653-5.672 24.442-10.263 1.074-.8 1.88-.54 2.686.54 2.954 2.7 4.03 6.482 4.03 11.073zm-2.955-1.08c-.268-1.08-.268-2.16-.806-3.24-.805-4.05-1.343-4.05-5.103-2.43-16.116 7.02-32.23 13.503-49.7 16.474-.806 0-1.61 0-1.88.8-.537 2.97.27 5.942 1.612 8.643 1.342 2.43 3.223 1.62 5.103 1.08 16.384-3.78 32.5-9.453 47.8-16.745 2.148-.8 2.954-2.43 2.954-4.59z" class="B N"/><g class="G B"><path d="M465 360c0 .5-.333.5-.667 1 0 0 0-.5-.333-.5.333 0 .667 0 1-.5zm-44-45c0 .4-.333.8-.667 1l-.333-.2c0-.4.333-.6.667-.8H421z"/><path d="M466 360c-.333.5-.667 1-1 1 .333-.5.667-.5 1-1zm-45-43.5c-.5 0-.5 0-1 .5.5-.5.5-.5.5-1l.5.5zm0-2.167a.72.72 0 0 1-.667.667H420l1-1v.333z"/></g><path d="M648.315 388c1.337 1.34 2.674 2.95 3.476 5.098l-8.823 16.634c-.535 1.073-.535 1.878-.535 2.95l12.3 69.756c.267 1.073.267 2.146-.535 3.22L630.4 520l-5.08-6.976L606.604 487c-1.07-1.6-1.604-3.22-1.07-5.098l10.962-61.17 1.337-7.512c.268-1.342 0-2.415-.802-3.488l-10.428-16.366c.535-1.6 1.605-3.22 2.94-4.293l12.835 19.854c.534 1.073 1.07 1.878.802 3.22l-11.23 60.634-1.07 6.708c-.267 2.414-.534 4.56 1.337 6.975 5.615 7.513 11.23 15.293 16.578 23.074 1.337 1.878 2.14 1.61 3.208-.27l16.845-24.146c1.872-2.683.268-5.366 0-8.05l-11.497-65.732c-.267-1.073 0-1.61.535-2.414l9.358-18.244c.535-.805.802-1.878 1.07-2.683z" fill="#843c0c" class="B"/><g class="N B"><path d="M726.35 536c1.077.803 2.422.535 3.498.535.808 0 1.077.535 1.346 1.338.807 2.14.807 4.55.27 6.958-1.884 8.563-4.036 10.17-12.378 8.028-15.606-3.746-30.674-8.83-45.204-15.52-7.804-3.746-8.88-13.38-2.422-19.535 1.076-.803 1.614-.268 2.422.267 4.036 2.14 8.072 4.282 12.377 5.62.807.535 1.884 1.07 2.96 1.07 12.108 4.816 24.217 9.633 37.132 11.24zm-55.698-7.493c-.54 2.944 1.614 4.282 4.036 5.62 14.8 6.7 30.136 12.042 46.012 15.788 5.112 1.34 5.92.803 7.265-4.28 1.614-4.817 1.076-5.352-3.767-6.423-16.414-3.48-32.3-9.098-47.627-16.056-4.036-1.873-4.574-1.606-5.65 2.944-.27.802-.27 1.605-.27 2.408zM737 452.5c-.25 0-.25.5-.75.25-.25-.5.25-.5.5-.75 0 0 .25.25.25.5zM698.5 410c5.803 0 10.224 4.267 10.5 9.867C709 425.2 704.303 430 698.776 430c-6.08 0-10.776-4.533-10.776-10.133S692.697 410 698.5 410zm8.566 9.867c0-4.534-3.592-8.267-8.566-8.267-4.697 0-8.566 3.467-8.566 8.267 0 4.533 3.87 8.533 8.566 8.266 4.697 0 8.566-3.733 8.566-8.266z"/></g><path d="M653 302.96c-7.167 3.98-14.864 5.04-22.562 4.776-6.105-.266-12.2-1.857-17.784-3.98-2.654-.796-2.123-1.592-.796-2.918 4.247-4.245 11.68-5.837 16.988-3.45 1.592.53 2.92.53 4.512 0 7.167-2.388 15.13 0 19.642 5.57z" stroke="#d39455" class="B C D F G"/><g class="E B"><path d="M595 194.75c0 3.5-1.7 6.25-3.62 6-1.93 0-3.38-3-3.138-6.25s1.7-5.5 3.62-5.5c1.7.25 3.138 2.75 3.138 5.75zm80.194-5.667c.258 2.7 1.806 5.146.774 8.125-.774 1.896-1.3 3.792-3.355 3.792s-2.84-1.896-3.097-3.792c-.516-1.083-.516-2.437-.258-3.8.774-4.334 2.065-5.417 5.936-4.334zM591 529.297c0 2.162-.806 3.784-2.954 4.595-15.305 7.297-31.416 12.973-47.796 16.757-1.88.54-3.76 1.35-5.102-1.08-1.342-2.703-2.148-5.676-1.6-8.65.27-.8 1.074-.8 1.88-.8 17.453-2.973 33.565-9.46 49.676-16.486 3.76-1.622 4.296-1.622 5.1 2.432.538 1.08.538 2.162.806 3.243zm79.534-1.065c0-.803 0-1.607.267-2.4 1.068-4.553 1.602-4.82 5.606-2.946 15.217 6.964 30.97 12.6 47.254 16.07 4.805 1.072 5.34 1.608 3.737 6.43-1.335 5.1-2.136 5.625-7.208 4.286-15.75-3.75-30.968-9.107-45.652-15.804-2.402-1.34-4.538-2.678-4.004-5.625z"/></g><path d="M707 419.365c0 4.587-3.84 8.365-8.5 8.365-4.66.27-8.5-3.778-8.5-8.365 0-4.857 3.84-8.365 8.5-8.365 4.935 0 8.5 3.778 8.5 8.365z" class="B I"/><g stroke="#dae3f3" stroke-miterlimit="8" fill="none"><path d="M697.938 173.5c8.576 0 17.153.268 25.73 1.6 3.216.536 6.164 1.34 9.38 1.878 5.092 1.34 7.772 4.83 8.576 9.927 1.876 10.463 0 20.4-5.092 29.78-2.948 5.098-7.237 8.05-12.865 9.4-5.896 1.342-11.792 1.878-17.7 2.147-11.524.268-23.05-.537-34.305-2.415-3.752-.536-7.236-1.6-10.988-2.415-1.877-.536-3.217-1.878-4.02-3.487-2.412-3.488-3.484-7.244-4.288-11.27-1.34-5.634-1.876-11.268-1.072-16.902 0-1.342.268-2.683.536-3.756 1.34-5.098 4.288-8.317 9.113-9.927a106.21 106.21 0 0 1 17.956-3.22l19.03-1.342zm-136.164.268c14.204 0 24.4.805 34.305 2.683 3.216.805 6.165 1.6 9.113 2.683s4.824 3.22 5.628 5.903c.804 2.414 1.608 4.83 1.876 7.244.804 7.78-.268 15.292-2.948 22.804-.804 1.878-1.876 3.488-2.68 5.366-.804 1.342-2.144 2.415-3.752 2.95-3.753.805-7.505 1.88-11.257 2.415a180.12 180.12 0 0 1-34.037 2.415c-5.897-.27-12.06-.805-17.957-2.147-5.628-1.34-9.917-4.56-12.865-9.658-5.092-9.4-6.7-19.317-5.092-29.78.268-1.073.804-2.146 1.072-2.95 1.072-2.95 2.948-4.83 5.628-5.902 3.753-1.342 7.505-2.147 11.257-2.683 8.576-1.073 17.153-1.6 21.7-1.342z"/></g><g class="B"><path d="M642.253 200.367l1.344 6.646c.27.53.27 1.063.538 1.595l7.796 2.126v-.266c-1.344-5.582-1.882-11.164-1.075-16.746 0-1.33.268-2.66.537-3.722 1.344-5.05 4.302-8.24 9.14-9.835 5.915-1.595 12.098-2.66 18.012-3.2l19.087-1.33c8.602 0 17.205.265 25.807 1.595 3.226.53 6.183 1.33 9.41 1.86 5.108 1.33 7.796 4.785 8.603 9.836.538 2.392.538 4.785.538 7.177l13.7-2.392c1.075-1.33 2.15-2.127 3.494-2.925.27 0 .538-.265.807-.53-.27-4.253-.807-8.507-.807-12.228-2.688-1.33-4.838-2.392-6.72-3.722-2.15-1.33-4.57-2.392-7-2.658-7.796-1.595-15.592-1.86-23.657-2.126-19.893-.532-39.786.265-59.68 2.658-4.57.532-9.41 1.595-13.98 2.658-2.688.532-5.107 1.595-5.914 4.52h-21.506c-.807-3.2-3.495-3.72-6.183-4.52-1.076-.532-2.42-.797-3.495-1.063-9.41-2.127-19.087-2.924-28.765-3.456a751.32 751.32 0 0 0-34.41-.797c-9.677 0-19.086.265-28.495 1.595-2.42.53-4.84.797-7 2.126-2.688 1.595-5.377 3.722-8.603 4.253L503 190.532c1.613.797 2.688 1.595 3.764 2.924l13.98 2.392c0-2.392.268-4.785.537-7.177.27-1.063.807-2.127 1.076-2.924 1.075-2.924 2.957-4.785 5.645-5.848 3.764-1.33 7.527-2.127 11.29-2.658 8.602-1.064 17.205-1.595 21.775-1.33 14.248 0 24.463.798 34.4 2.66 3.226.797 6.183 1.595 9.14 2.658s4.84 3.2 5.646 5.848c.806 2.392 1.612 4.785 1.88 7.177.538 5.582 0 11.43-1.344 16.747l7.796-2.127c.807-2.126 1.076-4.52 1.613-6.91.27-1.33.807-2.127 1.882-2.658 1.882-.798 3.764-1.86 5.645-2.393 4.302-1.33 8.872-1.063 12.904 1.064 1.075.797 1.613 1.33 1.613 2.392z" fill="#432918"/><g stroke="#96622e" class="C D J K"><path d="M550.333 66.375c4.3-3.996 9.384-6.927 14.48-9.857 10.456-6.127 21.18-10.923 32.978-13.587 7.775-1.865 15.82-2.93 23.862-2.664 13.674.533 26.812 3.73 39.413 9.058 8.58 3.73 16.623 8.26 24.935 13.853-38.34-10.923-74.536-5.328-109.66 10.4 14.746-2.13 29.492-3.197 44.507 1.066-3.486.8-6.97 1.332-10.2 2.398-14.478 3.996-28.688 9.058-41.826 16.517-1.34.8-3.217 1.332-3.217 2.664.536 1.332 2.68 1.332 4.022 1.332 3.217.266 6.166-.533 9.116-1.6 8.3-2.398 16.087-5.86 24.13-8.8 7.507-2.93 15.283-4.53 23.326-5.328.268 0 .536 0 1.877.266-6.97 1.598-12.87 2.93-18.768 5.595-8.312 3.463-15.82 8.525-23.862 13.054-8.312 5.062-17.16 8.26-27.08 8.26-2.95 0-5.9-.8-8.848-1.066-2.95-.532-3.217-1.065-1.072-3.197 4.557-5.06 9.384-9.857 15.55-13.32s12.602-6.66 19.84-9.857c-8.58-1.598-16.355-.266-23.862 1.332-7.508 1.865-15.015 4.53-21.986 8.26.804-2.398 2.68-3.73 4.3-5.062 12.065-9.324 25.74-15.985 39.95-21.58s28.7-9.6 44.24-11.988c-1.34-1.598-3.217-1.332-4.558-1.598-7.507-.533-15.282-.533-22.8.8-10.456 1.332-20.644 3.996-30.833 7.46-5.094 1.865-10.188 3.73-15.014 6.127-1.073.533-1.877 1.066-2.95 1.066zm169.805 34.072c3.245.54 5.138 3.513 7.842 5.134 5.408 3.512 10.546 7.565 16.765 9.726.54.27 1.082.54 1.622.54 4.056.8 5.138-.27 3.786-4.053-2.704-8.646-8.112-15.4-15.954-19.994-2.975-1.9-5.95-3.512-9.194-5.404 6.5-1.08 12.44-.27 18.117 2.162 5.4 2.162 10.546 5.133 15.414 9.727-1.082-8.376-20.28-26.478-43.536-32.152 6.76-3.783 13.25-5.133 20.28-3.783 14.33 2.16 26.5 15.67 29.474 26.75-7.3-10.267-15.413-18.103-28.122-19.724C761.5 80.724 767.46 102.34 768 126.925c-4.597-13.78-10.276-26.748-24.066-34.043 13.25 15.94 20 34.043 17.035 55.118-1.622-2.702-2.433-5.404-4.056-8.106-4.597-8.105-11.627-14.05-18.658-19.723-5.95-4.593-12.168-9.187-16.224-15.67-.812-1.35-1.623-2.702-1.893-4.053z"/></g><g class="N"><path d="M535.934 607.1c-1.613-.537-3.226-.805-4.84-1.342l-3.226-.804c-6.453-2.146-7.26-3.22-7.528-10.193-.538-9.4 0-19.046.806-28.434 2.15-29.24 5.915-58.2 9.948-87.18l5.647-39.163c.268-.805.537-1.878 0-3.22-6.453 2.95-12.906 6.17-19.628 8.852-9.14 4.023-18.552 7.242-28.77 8.583-16.132 2.415-29.306-3.487-39.254-16.094-8.335-10.998-12.637-23.874-15.595-37.018-.27-.536-.27-.804-.27-1.34-3.226-8.047.538-13.68 6.184-19.045.807 4.024 1.882 7.78 2.42 11.803.538 3.22 2.15 4.56 5.378 3.755 10.485-.536 23.122-10.46 26.617-20.655.807-1.6 1.076-3.22 1.614-4.828 1.075-4.024-1.076-7.78-.807-11.534 1.076-1.342 1.613-1.073 2.7.268 5.915 7.78 11.56 15.558 15.325 24.678.807 1.878 1.345 1.878 2.958 1.073 17.476-9.388 35.22-18.777 53.505-27.36 2.957-1.34 4.57-4.56 7.797-5.9 1.344.536 2.688 1.34 3.764 2.414-2.958 1.34-6.722 1.878-7.53 6.438a3209.54 3209.54 0 0 0-16.132 99.786c-4.57 31.653-8.872 63.574-11.56 95.495-1.344 13.143-2.7 26.287-1.882 39.43.27 3.22 1.613 5.097 4.57 5.902 17.745 5.364 35.76 8.047 54.042 8.315 3.227 0 6.453-.268 9.68-1.34 1.882-.268 2.688-1.34 2.688-3.22l1.613-117.5c0-5.365-1.075-10.193-3.226-14.754L579.5 446.7c-.27-.537-.538-.805-1.345-.537 0 4.56.27 9.12 0 13.95-.537 9.388-1.344 19.045-7.528 27.092-.807 1.073-.538 1.34.538 1.6 1.344.536 2.688.536 4.033-.27s2.688-1.34 4.302-1.6c2.42-.268 4.57 0 6.184 2.146 1.344 1.6 1.344 3.487.268 5.365-1.344 2.146-3.495 3.22-6.184 2.682-3.495-.268-7-1.073-10.485-1.877-.807-.27-2.15-.537-2.7-1.342-2.7-2.414-5.377-1.34-8.066-.268-1.882.805-4.033 1.6-6.184 1.34-2.958-.268-5.1-2.682-5.1-5.633.27-2.682 2.42-4.56 5.378-4.828 2.15-.268 4.033.805 6.184 1.073-2.42-4.56-3.764-8.852-5.378-13.412-2.957-9.657-2.957-19.85-5.377-29.507-.807-3.487-.538-6.974-.27-10.46.27-5.097 1.613-9.4 6.184-12.34.538-.536.807-1.073 1.076-1.877 0-10.462 2.15-20.655 2.688-30.848.807-10.462 5.1-19.85 9.68-28.97 1.076.268 2.15.804 2.958 1.6-2.958 5.633-5.646 11.534-7.26 17.704-1.345 4.292-2.42 8.852-2.15 13.68.537 5.902 3.495 8.584 9.14 8.584h6.722c1.882 0 4.302-.536 5.377 1.6.807 2.146-.806 3.755-1.882 5.364-3.495 4.292-5.108 8.852-5.108 14.217-.27 7.5 2.15 14.485 5.108 20.923 3.495 7.78 8.066 15.022 11.83 22.533 1.345 2.414 2.42 4.828 3.764 8.047.807-12.07 1.076-23.337.538-34.603l-.806-24.4c1.075.268 1.344-.805 1.613-1.6.27-.536.27-1.073 1.075-.805l1.345 26.02c.268 10.73 0 21.2-.27 31.653v58.208c-.27 1.6-.27 3.22-.27 4.83 0 7.78.27 15.826 0 23.605 0 1.6.538 2.682 1.882 3.22v.805c-3.495-.537-2.42 2.414-2.15 3.755.27 13.948-1.075 28.165-.807 42.114-.268 2.682-1.613 4.828-3.495 6.706-2.957-.268-5.646 1.073-8.604 1.073-7.797 0-15.594 0-23.4-1.073-9.142-1.34-18.014-2.414-26.618-4.828zm29.307-204.133c-.27-.536-.807-.805-1.345-.805-1.882-1.34-3.764-2.95-5.108-5.9-1.345 7.78-1.882 14.485-2.15 21.46 0 1.6-.27 2.683-1.882 3.488-2.42 1.6-4.033 4.023-4.84 6.974-1.344 5.096-.806 10.46-.27 15.558.27 2.414 2.42.805 3.764 1.073s1.882-.268 1.614-1.878c-.538-3.487-1.076-6.706-.807-10.193.538-4.56 3.495-6.974 8.066-6.438 4.302.537 6.453 3.22 7.797 7.243.807 2.682 1.345 5.633 1.613 8.315 0 .805-.268 2.146 1.076 2.146 1.613 0 3.226.268 4.57-.536.806-.537-.27-1.6-.538-2.414-2.15-5.365-4.033-10.73-4.57-16.632V421.2c-.27-6.17 1.613-11.535 5.378-16.363.268-.537.806-.805.537-1.6-.27-.536-.806-.268-1.344-.268-4.033.268-7.797.268-11.56 0zm-67.217 2.146c-4.033-13.412-9.95-25.75-18.82-37.554-1.076 11.266-6.453 19.314-14.788 25.215-8.335 6.17-17.476 8.852-28.23 5.633 2.7 12.34 6.184 23.874 13.174 34.335 10.217 15.3 24.467 21.46 42.75 17.704 15.864-3.487 30.114-10.46 44.633-17.436 1.344-.536 1.344-1.6 1.613-2.682l8.066-49.893 3.495-18.5c-1.075-.268-1.613.268-1.882.268-17.476 8.047-34.415 17.168-51.623 26.02-1.344.804-1.613 1.6-1.075 3.22 1.613 4.292 2.957 8.852 3.764 13.68h-1.075zm67.217 78.06c2.15-2.683 2.957-4.292 4.033-8.048 3.764-13.68 2.42-27.63-.807-41.3 0-.537-.538-1.34-.807-2.146-1.613-2.95-4.84-4.56-8.066-3.755-3.495.804-3.495 3.755-3.764 6.437-.27 4.83 1.076 9.657.807 14.754-.538 4.023.537 8.315 1.344 12.34 1.344 7.5 3.227 14.753 7.26 21.728zm-13.982-33.8c.807 8.852 2.15 17.704 5.1 26.02 1.344 4.56 3.226 8.852 6.184 12.875 2.42 2.95 5.377 5.633 9.68 5.902.807 0 1.882.536 2.15-1.073 0-1.342-.27-2.146-1.613-2.415-3.495 0-5.646-2.146-7.528-4.56s-3.227-5.365-4.57-8.315c-3.496-9.12-5.1-18.777-5.915-28.434 0-1.34.537-2.95-1.882-2.95s-1.345 1.878-1.614 2.95zm25.274 6.17v-8.584c0-1.073-.27-1.6-1.613-1.6-1.076.27-2.15 0-1.882 1.6v2.682c0 11.803.806 23.874-6.184 34.335-1.076 1.073.27 1.6.806 2.415.807 1.072 1.345 0 1.882-.537 1.883-2.682 3.496-5.633 4.302-8.852 2.15-6.974 2.7-14.217 2.7-21.46zm3.764 39.7c2.7 0 4.57-1.073 4.302-3.488 0-2.414-1.613-3.22-3.764-2.95-1.882.268-4.57-.27-4.84 2.95 0 2.683.807 3.488 4.302 3.488zm-22.585-5.634c0-2.414-1.344-3.218-4.84-3.218-2.15 0-3.764.804-3.764 3.218s1.882 3.488 4.3 3.22c2.15 0 4.57.27 4.302-3.22zm2.15-1.34c.27.805-1.075 2.146.538 2.95.538 0 1.344-.268 1.344-.268.538-1.6-.806-1.878-1.882-2.683zm140.684-133.395c1.08-1.07 2.158-1.606 3.507-1.874 19.154 10.443 33.452 25.973 46.132 43.378 13.758 19 25.628 39.094 37.5 59.176 3.776 6.426 4.316 12.853 1.888 19.815-2.428 7.497-5.935 14.727-9.712 21.956-8.903 15.53-19.424 30-32.103 42.843-1.35 1.34-2.428 1.606-4.317.803-2.158-1.07-4.316-1.874-6.744-2.677-.54 1.338-.27 2.677 0 3.748 1.35 14.46 2.697 28.65 2.967 43.1.27 4.285.27 8.837-.8 13.12-.54 2.678-1.888 4.284-4.586 5.087-4.856 1.607-9.982 2.946-14.838 4.285-.54 0-1.35 0-1.62.535-1.618.268-3.507-.803-4.856 1.34h-3.507c-12.14 2.4-24.55 3.48-36.96 2.945-2.968-.267-5.935-.803-8.633-2.4-1.62-.804-2.428-2.143-2.428-4.285l-.54-19.546c-.54-17.405-.54-34.542-.8-51.947v-8.836c-.27-20.886.54-41.772-.27-62.925-.8-16.6 0-33.203 1.08-49.804 2.698 1.606 2.16-1.607 3.238-2.142-1.08 20.35-1.9 40.7-.27 61.318 2.698-7.498 6.744-14.46 10.52-21.42 3.507-6.962 7.014-13.657 8.903-21.422 1.888-8.3 1.35-16.333-4.586-23.295-.54-.536-.8-1.07-1.08-1.607-1.08-2.678-.54-4.284 2.428-4.552h7.553c8.094.268 11.06-2.678 11.06-10.978 0-1.34-.27-2.4-.27-3.75-1.618-8.568-4.856-16.6-8.902-24.367.8-.803 1.888-1.338 2.967-1.606 1.08 1.34 1.08 2.945 2.16 4.016.27.268.27.536.54 1.07l-.27-.267c.27.803.27 1.874 1.35 1.874-.54 1.07.27 1.874.54 2.945 1.35 3.48 2.967 6.962 3.777 10.98 1.35 7.23 3.237 14.727-3.238 21.42-1.888 1.874-.27 4.284 2.428 4.552.8 0 1.62 0 2.428.268.54.535 1.08.268 1.9.535.54.268.8.536 1.35.804 5.395 3.213 8.093 7.765 7.553 13.656s-3.777 10.175-9.442 12.05c-5.665 2.142-10.8.803-15.107-3.213-.54-.536-.54-1.34-1.62-1.07-2.158 9.104-6.205 17.405-10.8 25.705-4.047 7.498-8.363 15.263-11.33 23.564-.8 2.142-1.35 4.284-1.35 6.426l1.62 118.084c0 5.356.27 5.623 5.665 6.427.8 0 1.35.268 1.9.268 20.503.803 40.736-2.4 60.43-8.57 1.888-.535 2.698-1.874 2.967-3.75.27-2.677.54-5.623.54-8.3 0-16.066-1.62-32.132-3.237-48.198-.27-2.142-.27-4.552-3.238-5.088-1.08-.535-2.158-.803-2.967-1.338-11.33-6.16-21.852-13.12-31.294-21.7-.8-.803-1.62-1.338-2.428-2.142-2.968-3.213-2.968-3.213-.27-6.694.8-.803 1.35-1.606 1.888-2.4 9.173-12.585 16.996-25.705 27.518-37.22.8-.803.8-1.34.54-2.4a2981.48 2981.48 0 0 0-16.187-98.27c-.8-4.016-2.427-6.694-6.204-8.033zm9.712 6.16h-.54c0 .268 0 .535.27.535 0 1.072 0 1.875.27 2.678 5.395 28.65 9.98 57.034 14.298 85.685.54 3.213.54 6.426 1.888 9.907 3.238-2.945 5.935-5.623 9.442-7.23 0 .535 0 1.07-.54 1.338-7.824 6.427-14.03 14.46-19.964 22.76l-19.154 27.58c-1.35 1.875-1.08 2.678.27 4.017 13.76 12.585 29.136 21.957 46.402 28.918 1.618.804 2.697.268 4.046-1.07 10.252-10.442 19.154-22.224 26.708-35.077 5.396-8.836 9.982-17.94 13.22-27.847 1.62-5.623 1.08-10.7-1.888-15.8-8.094-13.12-15.377-26.508-23.74-39.36-10.8-16.066-21.852-31.864-35.88-45.52-4.316-4.284-9.172-8.57-15.107-11.514zm-22.93 59.98c.27 1.875-.54 4.017 1.08 6.16 4.586 5.623 12.68 6.694 18.344 2.142s6.205-13.12 1.08-18.476c-4.856-5.087-13.22-5.087-18.345 0-3.238 3.213-2.158 6.694-2.158 10.175zm-1.08-8.568c1.62-2.4 3.508-4.552 5.666-5.355 2.698-.804 3.777-2.4 3.237-5.088-4.586 1.874-9.442.536-14.568.803 2.428 3.214 4.317 5.9 5.665 9.64z"/></g><path d="M717.732 608.627l6.993 55.392c.27 1.076 0 2.15-1.345 2.42-1.883.27-1.345 1.076-.538 2.42 2.42 3.227 5.38 6.454 8.07 9.412 1.883 1.882 4.034 2.42 6.186 2.957 3.765.807 7.262 1.614 10.49 3.496 3.228 1.613 5.38 4.033 5.11 8.067 0 .538 0 1.075.538 1.613 3.765 4.034 3.227 8.067-1.345 10.756-4.84 3.227-10.5 4.302-16.138 4.57-8.875.27-17.213-1.075-25.282-5.11-5.38-2.958-9.682-6.722-11.834-12.638-.538-1.344-1.076-1.613-2.42-.807-2.69 1.614-5.1 1.076-7.262-1.344-1.344-1.613-3.227-2.958-4.84-4.302-2.69-2.15-3.765-8.336-2.15-11.294.268-.806.806-.806 1.344-.806 1.883.537 1.345-1.076 1.614-1.883 0-1.075-.538-1.344-1.614-1.344-2.15.27-2.958-1.076-4.034-2.69-18.02-32.267-34.696-65.072-52.447-97.34-.538-.807-1.076-1.882-1.614-2.69-1.076 0-1.076.807-1.344 1.344l-53.254 97.34c-1.345 2.42-2.7 4.034-5.648 4.572-.538 0-1.883-.27-1.883 1.344 0 1.345 1.076.807 1.883.807s.806.538 1.075 1.075c1.345 4.303 0 8.874-3.496 11.832-.807.537-1.883 1.344-2.7 2.15-2.69 3.495-5.917 4.84-9.95 1.613-5.1 13.176-16.138 17.21-28.5 19.092-6.993 1.075-13.986.537-20.7-1.614-2.15-.807-4.034-1.613-5.917-2.958-3.496-2.69-3.765-6.99-.537-9.95.537-.537.806-1.075.806-1.882-.27-4.302 2.152-6.722 5.648-8.605 3.228-1.613 6.456-2.42 10.22-3.226 2.958-.538 5.38-1.882 7.53-4.302 1.614-2.152 3.496-4.303 5.1-6.185 1.345-1.882 3.496-3.496 0-5.378-1.076-.538-.538-1.344-.538-2.42l7.8-52.165c0-1.613.27-2.958.27-4.302 1.614.537 3.227.806 4.84 1.344-.27 7.26-1.883 14.25-2.958 21.512l-4.304 30.384c-.538 2.69.538 4.034 2.96 4.84 8.875 2.958 17.75 3.496 26.896 2.958 4.572-.27 7.53-1.613 9.682-6.453 3.228-6.99 7.53-13.983 11.296-20.974l15.062-27.427c1.883-1.882 3.228-4.033 3.496-6.722 5.11-8.067 9.414-16.672 13.986-25.007l8.338-15.058c-6.993-1.345-13.717-2.15-19.365-5.916v-.807c1.883.27 3.765.807 5.648 1.076 10.76 2.15 21.786 2.958 32.813.807 4.572-.807 9.145-2.15 13.717-3.227-2.96 2.958-6.724 4.57-10.49 5.916-4.035 1.344-8.338 1.613-12.9 2.42.806 1.344 1.344 2.69 2.15 3.764l29.855 55.93 20.978 38.183c.538 1.075 1.076 2.42 2.7 2.42 6.993.27 13.717.537 20.7-.27 3.765-.27 7.8-1.076 11.565-2.42.807-.27 1.614-.27 1.614-1.882l-3.766-29.04c-1.075-7.26-1.882-14.79-2.69-22.05 1.345-2.15 3.227-1.076 4.84-1.345z" fill="#373636"/><g fill="#002060"><path d="M596.12 412.733c-1.07-2.407-2.675-4.278-4.013-6.418-8.56-13.368-12.84-27.807-13.108-43.315 1.605.535 3.478 1.337 5.083 2.14.267 13.636 4.28 25.936 11.77 37.968 2.675-6.15 5.617-11.497 9.363-16.578 2.942-4 6.42-8.02 9.63-12.3 2.14.267 4.013.802 6.153 1.07-4.013 4.546-8.293 8.557-11.236 13.637-1.337 1.07-2.407 2.674-2.942 4.278-3.746 5.347-6.956 10.695-8.026 17.112-.802-.267-.802.268-1.07.802-.267.802-.535 1.872-1.605 1.605zm47.803-38.518c4.577 5.645 9.423 11.022 13.192 17.204 2.154 3.495 4.04 7.527 6.193 11.56 7-11.56 11.307-23.655 11.577-36.827 1.884-.807 3.5-1.345 5.115-2.15-.27 14.785-4.308 28.226-12.115 40.86-1.077 1.613-2.154 3.495-3.5 5.377-1.077.537-.54 3.763-3.23 2.15-1.885-7-4.846-13.44-9.154-19.355-.808-2.15-2.154-3.763-3.5-5.107-2.962-4.57-7-8.602-10.5-12.635 1.885-.806 4.038-.806 5.923-1.075z"/></g><path d="M570.372 358.957c-.806-.802-1.88-1.337-2.955-1.604L560.7 353.6c-1.074-1.07-2.418-1.872-3.76-2.407-10.48-6.684-20.42-14.17-29.02-22.994-10.48-10.963-19.346-22.46-23.914-36.9-1.344-4.01-2.15-8.02-2.687-12.3 0-1.07 0-2.14-1.612-2.407-8.06-1.87-12.897-7.22-15.853-14.17-3.762-9.09-6.18-18.716-9.136-28.075-2.15-7.22-4.836-14.17-5.642-21.657-1.075-9.36-.27-18.45 5.105-26.738 4.03-6.685 10.2-10.428 18.002-10.963 2.15 1.07 1.88 2.94 2.15 4.813-7.792-.268-13.166 3.476-16.928 10.16-4.836 9.09-4.836 18.984-2.15 28.877 3.76 13.102 8.06 26.203 12.09 39.305.806 2.674 2.15 5.08 3.762 6.952 2.15 2.674 4.3 5.348 7.792 6.15 1.343.267 2.687.802 2.687-1.07.806-6.684 1.343-13.1 1.88-19.52.268-1.604-.27-2.673-1.613-3.475-5.373-2.942-6.986-6.952-5.642-12.835 1.075-5.615 4.03-10.16 5.642-15.508 2.15-7.754 2.15-15.508-3.224-22.46-4.3-5.882-11.285-5.347-15.047 1.07-1.075 2.14-1.612 4.545-2.687 7.22-1.343-4.278 0-10.695 2.956-13.904 3.224-3.743 7.255-4.278 13.703-1.604 1.88 4.278 3.493 8.29 6.18 11.765.806 1.07 1.344 2.14 2.687 2.674v2.14c.27 8.288.538 16.577-4.3 24.064-.537 1.337-1.075 2.94-1.343 4.278-.538 2.674-1.344 5.615 1.343 7.754.537.535 1.075 1.604 1.88 1.07.537-.267.537-1.336.537-2.14.538-4.545 1.075-9.358 1.344-13.903.537 14.973.537 29.68.537 44.652a53.07 53.07 0 0 0 1.612 13.102c4.568 19.25 16.122 34.224 30.63 47.058 17.734 15.51 38.155 26.47 60.456 33.7 16.66 5.08 33.05 6.417 49.977 2.674 16.66-3.476 32.244-9.09 47.3-17.112 16.66-9.358 31.438-20.856 42.99-36.096 11.286-14.44 17.465-31.016 17.197-49.466-.27-7.486 0-14.973 0-22.46v-6.417c1.343 3.476 1.075 7.487 2.15 11.23 1.613-1.07 1.88-2.406 2.15-4 0-3.744-1.344-6.952-2.418-10.428-.806-1.872-1.88-3.476-1.88-5.615V206.55c2.418-2.674 3.762-5.883 5.91-8.824 0-.267.27-.534.538-.802.806-.267 1.612-.802 2.418-1.07 5.374-3.21 12.09-2.14 14.778 2.14 2.687 4 2.15 8.556 1.612 12.834-1.075-2.407-1.612-5.348-2.956-7.754-3.224-5.08-8.33-6.15-12.897-2.14-2.418 2.14-4.3 4.813-5.374 7.754-2.15 5.615-1.88 11.23-.268 16.845 1.343 4 2.955 7.754 4.03 11.764 1.88 5.883 1.88 11.23-3.762 14.974-1.343 1.07-1.075 2.406-1.075 3.743 1.075 5.882 1.344 12.032 1.075 18.182 0 .802-.268 1.872.538 2.406 1.074.535 1.88-.267 2.955-.802 4.568-2.94 7.255-7.22 9.136-12.3l12.36-33.958c2.955-8.288 4.3-16.844 2.687-25.4-2.15-10.962-9.136-18.984-20.152-17.647.537-1.604.806-3.476 2.15-5.08 9.404 0 15.584 4.813 19.615 12.834 5.105 9.626 5.105 20.054 2.15 30.482-4.3 14.706-9.404 29.144-15.584 43.315-2.955 6.952-7.792 12.3-15.584 14.17-1.075.268-1.344.802-1.344 1.872-5.373 26.203-22.032 44.118-42.722 59.358-4.3 3.21-8.598 5.883-12.897 8.824-1.344.267-2.418.802-3.493 1.87-2.418 1.07-4.837 2.407-7.255 3.744-.27 0-.537.267-.806.267-1.075.267-2.15.802-2.956 1.604l-9.673 4.01c-1.612.802-3.224 1.337-5.105 2.14-9.94 3.476-20.42 6.417-30.9 8.02-1.88.268-4.03.268-5.912 1.07h-17.196c-2.15-.267-4.03-.802-6.18-1.07-10.48-1.87-20.69-5.347-30.9-9.1-1.612-.803-3.493-1.605-5.105-2.14-2.687-1.337-5.374-2.942-8.06-3.744z" class="G"/><path d="M492.472 175.2c-4.028-12.666-7.25-25.333-8.592-38.538-1.88-14.283-1.88-28.566.805-42.85 3.49-17.787 14.23-30.992 27.388-42.58 21.212-18.326 45.915-29.105 73.035-35.034 26.314-5.66 52.628-6.198 78.673 1.347 18.26 4.85 34.37 13.744 47 28.027 1.074 1.078 2.148 1.078 3.5.81 9.398-1.617 18.528-1.887 27.925.808 14.768 4.042 24.703 13.744 31.148 27.488 6.175 12.666 8.592 26.41 8.86 40.424.806 22.098-3.222 43.658-11.277 64.41-.268.808-.268 1.617-.537 2.156-1.343 1.617-1.61 3.503-2.148 5.12-1.61 3.503-4.028 6.737-5.102 10.5-.537 0-.537.27-.537.81-2.148 2.964-3.5 6.198-5.907 8.893-1.074-7.276-.537-14.822-.806-22.098 0-10.78-1.342-21.02-5.1-30.992-4.296-10.78-10.204-19.943-19.333-27.22-4.833-3.773-9.935-7.277-14.768-11.05-11.546-8.085-19.87-18.326-24.703-31.53-.806-1.886-1.88-2.156-3.76-1.886-6.98 1.078-13.694 2.695-20.138 5.12-17.185 5.93-33.027 14.552-49.406 22.637-13.426 7.007-27.388 13.475-41.888 18.056-18 5.66-36.25 7.816-54.776 1.348-1.61-.54-2.148.27-2.685 1.347-4.296 7.007-6.713 14.553-8.324 22.368-2.953 12.936-3.222 26.14-3.222 39.346 0 3.773 0 7.816-1.074 11.59-1.343-.54-1.88-1.617-2.685-2.695-2.685-3.504-4.296-7.546-6.176-11.858-1.074-2.965-2.148-6.198-3.222-9.432-.27-1.887 0-3.773-2.148-4.85zm227.697-74.92c0-.27 0-.54-.27-.808h-.268c.268.27.268.54.537.808.268 1.348 1.074 2.695 1.88 4.043 4.028 6.468 10.204 11.05 16.11 15.63 6.98 5.66 13.962 11.59 18.527 19.674 1.61 2.694 2.417 5.39 4.028 8.084 2.953-21.02-3.76-39.076-16.917-54.976 13.695 7.276 19.333 20.212 23.898 33.956-.537-24.524-6.444-46.084-31.147-57.402 12.62 1.617 20.675 9.432 27.925 19.673-2.954-11.05-15.037-24.524-29.268-26.68-6.98-1.347-13.425 0-20.138 3.773 23.092 5.66 42.156 23.716 43.23 32.07-4.833-4.58-9.935-7.546-15.305-9.702-5.64-2.425-11.546-3.234-18-2.156 3.222 1.886 6.175 3.503 9.13 5.4 7.787 4.58 13.157 11.318 15.842 19.942 1.343 3.773.27 4.85-3.76 4.043-.537 0-1.074-.27-1.61-.54-6.176-2.156-11.277-6.2-16.648-9.702-2.685-1.617-4.564-4.582-7.786-5.12zM549.933 66.055c1.074 0 1.88-.54 2.954-1.078 4.833-2.425 9.935-4.312 15.036-6.198 10.204-3.503 20.407-6.198 30.88-7.546 7.518-1.347 15.305-1.347 22.823-.808 1.343.27 3.222 0 4.565 1.617-15.574 2.426-30.073 6.468-44.304 12.127s-27.925 12.397-40.008 21.83c-1.61 1.347-3.49 2.695-4.296 5.12 6.98-3.773 14.5-6.468 22.017-8.354 7.52-1.617 15.306-2.964 23.898-1.347-7.25 3.234-13.694 6.468-19.87 9.97s-11.01 8.354-15.573 13.475c-2.15 2.156-1.88 2.695 1.074 3.234 2.953.27 5.907 1.078 8.86 1.078 9.935 0 18.796-3.234 27.12-8.355 8.055-4.58 15.574-9.7 23.897-13.205 5.908-2.695 11.815-4.042 18.796-5.66-1.343-.27-1.61-.27-1.88-.27-8.056.808-15.843 2.425-23.36 5.4-8.055 2.965-15.842 6.468-24.166 8.893-2.953 1.078-5.907 1.886-9.13 1.617-1.343 0-3.49 0-4.028-1.347 0-1.347 1.88-1.886 3.222-2.695 13.157-7.546 27.388-12.666 41.888-16.71 3.222-1.078 6.713-1.617 10.203-2.425-15.036-4.312-29.804-3.234-44.572-1.078 35.174-15.9 71.423-21.56 109.82-10.5-8.324-5.66-16.38-10.24-24.97-14.014-12.62-5.4-25.777-8.624-39.47-9.163-8.055-.27-16.11.81-23.898 2.695-11.814 2.695-22.554 7.546-33.026 13.744-5.102 2.965-10.204 5.93-14.5 9.97-.268 0-.268 0-.268.27 0-.27 0-.27.268-.27z" fill="#7e5326"/><path d="M693.75 358c7.5 8.1 9.5 18.607 10 29.663.25 5.933 0 12.135 0 18.337-.75-.27-1.25 0-1.75-.54.25-8.36.5-16.72-.5-24.81-.75-5.663-1.75-11.056-5-15.64 0-.81-.25-1.348-1.25-1.887l.25.27c-.25-.54-.25-.81-.5-1.078-1-1.08-1-2.697-2-4.045.25 0 .5-.27.75-.27z" fill="#676767"/><path d="M582 277c33.844 8.432 67.156 8.16 101 .544-12.26 20.672-28.78 33.456-52.765 32.64C607.85 309.64 592.66 297.128 582 277zm14.657 4.896c1.066 4.624 2.665 8.432 7.195 9.248 19.454 4.08 38.64 4.352 58.095.544 3.998-.816 5.863-3.264 6.93-7.072.8-1.904.533-2.72-2.132-2.176-16.522 2.72-33.31 3.536-50.1 2.176-6.662-.272-13.058-1.36-19.987-2.72zm56.496 21.216c-4.53-5.712-12.525-8.16-19.72-5.712-1.6.544-2.932.544-4.53 0-5.33-2.448-12.79-.816-17.055 3.536-1.332 1.36-1.865 2.176.8 2.992 5.597 2.176 11.726 3.808 17.855 4.08 7.73.272 15.457-.816 22.652-4.896z" class="M"/><path d="M596 282c7.022 1.4 13.504 2.52 20.255 2.8 17.015 1.4 34.03.56 50.774-2.24 2.7-.56 2.97.28 2.16 2.24-1.08 3.92-2.97 6.44-7.022 7.28-19.715 3.92-39.16 3.64-58.876-.56-4.59-.84-6.212-4.76-7.292-9.52z" class="E"/><path d="M567 137.536L595.415 125l95.842 3.857L698 152l-27.452-7.714-26.97 5.303-48.162-4.34-25.044 3.375-3.37-11.09z" class="H"/><g class="M"><path d="M591.14 148c7.107.27 12.3 2.983 16.4 7.593 1.093 1.356 2.187 2.712 2.187 4.34.273 1.356-.274 2.17-1.094 2.983-1.093.814-2.186.27-3.28-.27-1.093-.813-1.913-1.627-3.006-2.712-5.194-4.6-10.934-5.424-17.494-2.712-3.28 1.356-6.286 3.255-9.566 4.882-1.64.813-3.28 1.898-4.92 0-1.367-1.9-.547-3.797.82-5.153 5.466-5.966 12.573-8.135 19.953-8.95zM691 161.13c0 2.58-1.854 3.87-3.974 2.84-2.12-.774-3.973-2.065-5.827-3.097-3.18-2.065-6.358-3.613-10.067-4.13-5.033-.774-9.27 1.3-12.98 4.387-1.6 1.3-2.914 3.097-5.033 1.3-2.12-2.064-.794-3.87.53-5.42 4.503-5.42 10.33-8 17.22-7.484 6.622.516 12.45 3.097 17.483 7.484 1.324 1.032 2.384 2.58 2.65 4.13z"/></g><g class="G"><path d="M459 317c-4.25 4.984-7.75 9.443-7 16-4-4.72-.25-13.902 7-16zm31.273-25.75c-7.026-1.884-15.132 1.884-18.645 8.6a52.77 52.77 0 0 0-3.242 6.727c-2.702-10.225-5.404-19.643-7.566-29.33-1.08-4.306-1.35-8.88-3.243-12.916-2.972-5.92-8.917-8.342-14.86-5.92-5.134 1.883-7.296 5.65-7.296 11.57-1.08-1.883-1.62-3.23-2.432-4.305-2.43-4.305-6.214-6.727-11.348-6.458-7.566.807-11.9 7.265-10.538 15.338 1.08 6.996 4.323 13.454 7.295 20.18.27.538.54 1.076 0 1.615-.27-.27-.54-.808-.8-1.077-1.08-1.614-2.162-3.23-3.513-4.843-3.513-4.306-8.917-5.65-13.78-3.767-6.755 2.96-9.457 11.032-5.404 17.76 2.432 4.844 5.945 9.15 9.457 13.454-2.16-.807-4.323-1.614-6.485-2.152-1.08-.27-2.16-.27-2.972-.27-4.053 0-7.295 1.614-9.457 4.574-2.432 3.767-1.892 8.073 1.9 11.57 2.162 1.883 4.594 3.23 6.485 4.036 7.026 3.498 14.592 5.65 21.887 8.072 0 0 0 .27.27.27 3.783 9.418 9.728 17.5 19.996 20.72 1.35.538 1.35 1.345 1.62 2.422.54 4.305 1.35 8.88 2.162 13.454.8 4.036 1.9 7.803 2.432 11.84.54 3.23 2.16 4.574 5.404 3.767-2.702-9.418-4.324-19.105-5.945-28.523-.27-1.615.27-2.153 1.62-2.153 1.08 0 1.892-.27 3.513-.807-3.242-.807-6.215-1.076-9.187-2.422-8.106-3.767-13.24-9.687-16.753-16.952-.27-.807-.54-1.346-.8-2.153-1.9-.538-3.512-1.345-5.133-1.883-6.215-2.422-12.16-4.844-17.834-7.804-1.892-1.076-4.053-2.422-5.675-3.767-2.43-2.422-3.242-5.382-1.9-7.534 1.62-2.422 4.323-3.23 7.836-2.153 2.972.538 5.674 2.153 8.376 3.498 1.622.807 3.513 1.615 5.134 2.7 1.892.807 3.783 1.884 5.405 2.96v-1.346c-.27-2.42-1.892-4.305-3.513-6.2-.8-1.076-1.62-2.152-2.432-2.96-4.323-5.113-8.376-10.226-11.9-16.145-2.432-4.306-1.62-8.6 1.9-11.033s8.377-1.884 10.8 1.884c3.512 5.112 7.565 9.956 11.348 15.068 1.35 1.346 1.892 2.422 0 3.498-.8.54-1.35 1.077-1.35 1.884v.27c5.404-3.767 11.08-7.265 17.294-9.418 5.674-2.152 11.348-3.767 18.374-3.23-3.513-1.883-6.485-2.152-9.458-1.614-1.9.538-2.702.27-3.242-1.884l-4.323-27.446c-.54-4.306 1.35-7.535 4.863-8.6 4.324-1.076 7.296.538 9.458 5.112 1.62 4.037 2.16 8.6 2.972 12.916 2.162 9.687 5.404 19.105 7.296 28.792.8 2.96 3.512 3.5 5.944 1.615 1.892-1.884 2.972-4.305 3.783-6.727 2.702-6.458 9.728-10.225 15.402-8.342 4.323 1.346 5.944 5.113 3.513 8.88-1.892 2.96-4.324 5.382-6.756 8.073-1.9 2.42-4.053 4.574-6.214 6.996-2.702 2.96-3.783 6.2-3.783 10.225.54 8.342-1.35 16.145-5.404 23.68-1.35 2.422-3.513 4.306-5.134 6.458 1.9.27 2.702-1.614 4.593-2.152l4.053 18.028c.8-1.614 1.08-3.23 1.622-4.843 1.08-4.036-1.08-7.804-.8-11.57-.8-2.422-2.162-4.574-.54-6.996 4.054-5.92 6.215-12.378 5.675-19.374-.27-6.2 2.16-10.494 6.215-14.8 2.43-2.42 4.593-4.843 7.025-7.534 1.08-1.345 2.432-2.96 3.513-4.844 2.972-6.458.27-12.377-6.755-14.26zm-50.26 7.803c.54 1.615.27 2.422-1.62 3.23-2.702.808-5.405 2.153-7.836 3.768-.8.538-1.622.538-2.162-.54-4.323-8.88-9.187-17.5-12.16-27.177-.8-2.153-1.35-4.574-1.35-6.996.27-3.767 2.16-6.727 5.674-7.535 3.242-1.076 6.485.27 8.647 3.5 1.9 2.42 2.702 5.38 3.782 8.34 2.703 7.534 4.864 15.607 7.026 23.4z"/></g></g></g></svg>